<svg width="135" height="25" viewBox="0 0 135 25" fill="none" xmlns="http://www.w3.org/2000/svg">
<path fill-rule="evenodd" clip-rule="evenodd" d="M55.1677 6.79305L53.8575 8.75705C52.5322 7.86077 50.937 7.41092 49.0737 7.41092C47.121 7.41092 46.1465 7.83114 46.1465 8.67141C46.1465 8.9845 46.2729 9.20853 46.5292 9.34366C46.7838 9.4788 47.1802 9.57437 47.7197 9.632L51.345 10.0372C54.1273 10.3651 55.5184 11.5449 55.5184 13.5797C55.5184 14.8617 54.9502 15.8223 53.8137 16.4615C52.6772 17.1025 51.1563 17.4221 49.2475 17.4221C46.8311 17.4221 44.7487 16.7894 43 15.5224L44.29 13.4529C45.8919 14.5486 47.6456 15.0956 49.5544 15.0956C50.5593 15.0956 51.3637 14.9721 51.9672 14.7233C52.5727 14.4729 52.8745 14.1071 52.8745 13.6227C52.8745 13.2964 52.7717 13.0509 52.5692 12.8861C52.3653 12.723 52.0077 12.6126 51.4985 12.5566L47.4348 12.1084C46.138 11.9651 45.1516 11.624 44.4754 11.0836C43.7976 10.5431 43.4587 9.74564 43.4587 8.69273C43.4587 7.49655 43.9864 6.59034 45.0438 5.97084C46.0993 5.35134 47.4414 5.0415 49.0737 5.0415C51.534 5.0415 53.5658 5.6265 55.1677 6.79305ZM57.4627 5.32009H68.428V7.73214H60.1926V9.90878H67.5984V12.321H60.1926V14.6689H68.735V17.124H57.4627V5.32009ZM83.6327 16.2275L81.8402 17.9774L80.4862 16.6757C79.4963 17.1733 78.3818 17.4221 77.1442 17.4221C75.2657 17.4221 73.6671 16.847 72.3503 15.6937C71.0317 14.5403 70.3723 13.0541 70.3723 11.2318C70.3723 9.41123 71.0317 7.92328 72.3503 6.77154C73.6671 5.61818 75.2657 5.0415 77.1442 5.0415C79.0227 5.0415 80.621 5.61818 81.9397 6.77154C83.2567 7.92328 83.916 9.41123 83.916 11.2318C83.916 12.7559 83.4438 14.0576 82.4962 15.1385L83.6327 16.2275ZM79.3294 12.0227L80.6397 13.3244C81.0039 12.7262 81.1861 12.0292 81.1861 11.2318C81.1861 10.0372 80.8032 9.08658 80.0394 8.38307C79.2737 7.67776 78.3093 7.3269 77.1442 7.3269C75.979 7.3269 75.0144 7.67776 74.2506 8.38307C73.485 9.08658 73.1023 10.0372 73.1023 11.2318C73.1023 12.4281 73.485 13.3772 74.2506 14.0823C75.0144 14.7858 75.979 15.1385 77.1442 15.1385C77.6534 15.1385 78.1644 15.061 78.6736 14.9045L77.5589 13.794L79.3294 12.0227ZM85.8163 5.32009H88.5464V11.3604C88.5464 13.8368 89.6981 15.0742 91.9979 15.0742C94.2996 15.0742 95.4496 13.8368 95.4496 11.3604V5.32009H98.1814V11.3389C98.1814 13.2749 97.6266 14.7726 96.5204 15.8322C95.4143 16.8933 93.9067 17.4221 91.9979 17.4221C90.091 17.4221 88.5834 16.8933 87.4773 15.8322C86.3695 14.7726 85.8163 13.2749 85.8163 11.3389V5.32009ZM103.958 8.38307C103.193 9.08658 102.81 10.0372 102.81 11.2318C102.81 12.4281 103.193 13.3772 103.958 14.0823C104.722 14.7858 105.687 15.1385 106.852 15.1385C108.017 15.1385 108.981 14.7858 109.747 14.0823C110.511 13.3772 110.894 12.4281 110.894 11.2318C110.894 10.0372 110.511 9.08658 109.747 8.38307C108.981 7.67776 108.017 7.3269 106.852 7.3269C105.687 7.3269 104.722 7.67776 103.958 8.38307ZM111.647 6.77154C112.964 7.92328 113.624 9.41123 113.624 11.2318C113.624 13.0541 112.964 14.5403 111.647 15.6937C110.329 16.847 108.73 17.4221 106.852 17.4221C104.973 17.4221 103.375 16.847 102.058 15.6937C100.739 14.5403 100.08 13.0541 100.08 11.2318C100.08 9.41123 100.739 7.92328 102.058 6.77154C103.375 5.61818 104.973 5.0415 106.852 5.0415C108.73 5.0415 110.329 5.61818 111.647 6.77154ZM115.634 5.32009H118.364V17.124H115.634V5.32009ZM127.08 7.68932L126.732 8.5099L126.692 8.49346L123.549 15.9607L123.039 17.124H120.112L125.377 5.32009H129.811L134.944 17.124H132.061L131.275 15.3312H124.829L125.807 13.0048H130.204L128.019 7.68932H127.08Z" fill="#F5F5F5"/>
<rect y="0.00195312" width="6.98202" height="4.16623" rx="0.8" fill="#F1C906"/>
<rect x="9.30859" width="19.7824" height="4.16623" rx="0.8" fill="#E02E69"/>
<rect x="9.30859" y="6.94482" width="19.7824" height="4.16623" rx="0.8" fill="#363636"/>
<rect x="18.6191" y="13.8887" width="10.473" height="4.16623" rx="0.8" fill="#00988D"/>
<rect y="13.8887" width="16.2914" height="4.16623" rx="0.8" fill="#F1C906"/>
<rect x="20.9453" y="20.8335" width="8.1457" height="4.16623" rx="0.8" fill="#363636"/>
<rect y="20.834" width="18.6187" height="4.16623" rx="0.8" fill="#5E448D"/>
</svg>
