<svg width="114" height="21" viewBox="0 0 114 21" fill="none" xmlns="http://www.w3.org/2000/svg">
<path fill-rule="evenodd" clip-rule="evenodd" d="M46.3576 6.62558L45.2567 8.30435C44.143 7.53824 42.8025 7.15372 41.2367 7.15372C39.5958 7.15372 38.7769 7.51291 38.7769 8.23115C38.7769 8.49877 38.8831 8.69026 39.0985 8.80577C39.3124 8.92128 39.6455 9.00297 40.0989 9.05223L43.1454 9.39861C45.4834 9.67889 46.6524 10.6873 46.6524 12.4266C46.6524 13.5224 46.1749 14.3435 45.2199 14.8899C44.2648 15.4378 42.9867 15.7109 41.3827 15.7109C39.3522 15.7109 37.6023 15.1701 36.1328 14.0871L37.2168 12.3182C38.5629 13.2548 40.0366 13.7224 41.6406 13.7224C42.4851 13.7224 43.1611 13.6168 43.6682 13.4041C44.177 13.1901 44.4306 12.8774 44.4306 12.4634C44.4306 12.1845 44.3442 11.9746 44.1741 11.8338C44.0027 11.6943 43.7022 11.6 43.2743 11.5521L39.8595 11.169C38.7697 11.0465 37.9408 10.7549 37.3727 10.293C36.8031 9.83101 36.5183 9.14937 36.5183 8.24937C36.5183 7.22692 36.9617 6.45231 37.8503 5.92279C38.7373 5.39326 39.8651 5.12842 41.2367 5.12842C43.3042 5.12842 45.0115 5.62845 46.3576 6.62558ZM48.2862 5.36654H57.5007V7.42829H50.5802V9.28882H56.8035V11.3507H50.5802V13.3576H57.7586V15.4561H48.2862V5.36654ZM70.2776 14.6899L68.7713 16.1856L67.6335 15.073C66.8017 15.4983 65.8651 15.7109 64.8251 15.7109C63.2465 15.7109 61.9032 15.2194 60.7967 14.2335C59.6886 13.2477 59.1345 11.9774 59.1345 10.4197C59.1345 8.86352 59.6886 7.59167 60.7967 6.6072C61.9032 5.62134 63.2465 5.12842 64.8251 5.12842C66.4036 5.12842 67.7468 5.62134 68.8549 6.6072C69.9616 7.59167 70.5156 8.86352 70.5156 10.4197C70.5156 11.7224 70.1188 12.8351 69.3225 13.759L70.2776 14.6899ZM66.6614 11.0958L67.7625 12.2084C68.0686 11.6971 68.2216 11.1013 68.2216 10.4197C68.2216 9.39861 67.8998 8.58602 67.258 7.98469C66.6146 7.38181 65.8042 7.08191 64.8251 7.08191C63.8459 7.08191 63.0354 7.38181 62.3936 7.98469C61.7502 8.58602 61.4286 9.39861 61.4286 10.4197C61.4286 11.4423 61.7502 12.2535 62.3936 12.8562C63.0354 13.4576 63.8459 13.759 64.8251 13.759C65.253 13.759 65.6824 13.6927 66.1103 13.559L65.1736 12.6098L66.6614 11.0958ZM72.1125 5.36654H74.4067V10.5296C74.4067 12.6463 75.3745 13.704 77.3071 13.704C79.2413 13.704 80.2077 12.6463 80.2077 10.5296V5.36654H82.5032V10.5113C82.5032 12.1661 82.037 13.4463 81.1074 14.352C80.178 15.2589 78.9111 15.7109 77.3071 15.7109C75.7046 15.7109 74.4377 15.2589 73.5083 14.352C72.5774 13.4463 72.1125 12.1661 72.1125 10.5113V5.36654ZM87.3577 7.98469C86.7144 8.58602 86.3927 9.39861 86.3927 10.4197C86.3927 11.4423 86.7144 12.2535 87.3577 12.8562C87.9996 13.4576 88.8101 13.759 89.7893 13.759C90.7684 13.759 91.5788 13.4576 92.2222 12.8562C92.864 12.2535 93.1858 11.4423 93.1858 10.4197C93.1858 9.39861 92.864 8.58602 92.2222 7.98469C91.5788 7.38181 90.7684 7.08191 89.7893 7.08191C88.8101 7.08191 87.9996 7.38181 87.3577 7.98469ZM93.8191 6.6072C94.9258 7.59167 95.4798 8.86352 95.4798 10.4197C95.4798 11.9774 94.9258 13.2477 93.8191 14.2335C92.711 15.2194 91.3678 15.7109 89.7893 15.7109C88.2107 15.7109 86.8674 15.2194 85.7609 14.2335C84.6528 13.2477 84.0987 11.9774 84.0987 10.4197C84.0987 8.86352 84.6528 7.59167 85.7609 6.6072C86.8674 5.62134 88.2107 5.12842 89.7893 5.12842C91.3678 5.12842 92.711 5.62134 93.8191 6.6072ZM97.1688 5.36654H99.4628V15.4561H97.1688V5.36654ZM106.787 7.39169L106.495 8.09309L103.82 14.4618L103.392 15.4561H100.932L105.356 5.36654H109.083L113.396 15.4561H110.973L110.313 13.9238H104.896L105.717 11.9352H109.413L107.576 7.39169H106.787Z" fill="#1D1D1D"/>
<rect y="0.000976562" width="5.84863" height="3.56116" rx="0.8" fill="#F1C906"/>
<rect x="7.79883" width="16.5711" height="3.56116" rx="0.8" fill="#E02E69"/>
<rect x="7.79883" y="5.93652" width="16.5711" height="3.56116" rx="0.8" fill="#1D1D1D"/>
<rect x="15.5957" y="11.8726" width="8.77295" height="3.56116" rx="0.8" fill="#00988D"/>
<rect y="11.873" width="13.6468" height="3.56116" rx="0.8" fill="#F1C906"/>
<rect x="17.5469" y="17.438" width="6.82341" height="3.56116" rx="0.8" fill="#1D1D1D"/>
<rect y="17.4385" width="15.5964" height="3.56116" rx="0.8" fill="#5E448D"/>
</svg>
